<svg width="403" height="300" viewBox="0 0 403 300" fill="none" xmlns="http://www.w3.org/2000/svg">
<path fill-rule="evenodd" clip-rule="evenodd" d="M401.441 113.25C396.476 151.132 390.871 171.143 358.155 210.814C325.44 250.486 175.732 276.584 120.386 276.584C65.039 276.584 -3.16947 232.915 1.13537 182.318C5.44021 131.721 27.8992 90.3669 81.6558 85.2761C136.592 80.0735 184.849 104.166 238.784 91.2445C285.413 80.0735 299.68 37.4936 331.706 24.0598C396.476 -3.10909 404.819 87.4792 401.441 113.25Z" fill="#009FDF"/>
<path d="M368.119 131.752C366.289 134.926 343.124 150.984 329.073 153.361C326.354 153.821 323.384 153.979 321.022 152.526C319.627 151.668 318.587 150.329 317.6 149.005C315.342 145.978 313.187 142.869 311.142 139.687C310.068 138.015 309.002 136.269 308.637 134.303C307.67 129.097 311.772 124.42 315.825 121.121C325.143 113.538 336.054 108.013 347.598 105.033C349.642 104.506 351.809 104.059 353.833 104.658C357.119 105.631 359.084 109.033 360.338 112.289C361.591 115.545 362.569 119.107 365.075 121.49C365.647 122.034 369.948 128.578 368.119 131.752Z" fill="white"/>
<path fill-rule="evenodd" clip-rule="evenodd" d="M243.647 270.101C221.165 274.035 231.88 257.316 234.981 236.39C240.075 202.004 246.358 149.75 246.358 149.75C246.358 149.75 250.454 229.373 250.454 248.761C250.454 268.149 246.357 269.627 243.647 270.101Z" fill="white"/>
<path d="M219.625 251.157C220.199 256.694 220.804 262.348 223.104 267.395C221.849 255.967 220.594 244.54 219.34 233.112C219.185 231.701 219.231 229.905 220.499 229.329C221.573 242.233 223.174 255.091 225.296 267.858C225.548 269.374 223.323 270.24 222.073 269.386C220.823 268.532 220.424 266.87 220.139 265.36C218.069 254.359 216.93 243.174 216.741 231.972C214.104 232.503 212.256 235.118 211.722 237.813C211.189 240.507 211.703 243.29 212.217 245.989C213.87 254.675 215.523 263.362 217.177 272.049C217.95 276.112 218.723 280.31 217.87 284.356C214.589 269.026 211.95 253.553 209.965 237.992C184.787 253.746 152.344 256.675 124.858 245.677C118.855 243.275 112.894 240.092 108.929 234.892C105.805 230.796 104.139 225.71 103.266 220.592C100.165 202.415 106.519 183.875 115.144 167.67C118.417 161.522 122.144 155.118 121.88 148.122C121.789 145.713 121.282 143.047 122.656 141.089C122.851 141.451 113.657 74.1607 117.345 59.2762C126.224 23.4429 155.068 18.59 173.535 19.032C185.926 19.3286 264.468 35.2996 275.816 57.0185C290.731 85.5634 287.564 109.562 284.915 125.387C284.127 130.099 246.368 149.403 246.358 149.5C244.199 170.033 229.713 214.774 217.564 231.266C218.251 237.896 218.938 244.527 219.625 251.157Z" fill="white"/>
<path fill-rule="evenodd" clip-rule="evenodd" d="M38.3302 167.609C31.2491 164.717 22.8105 165.574 16.4264 169.835C15.8084 170.248 14.9198 169.788 14.6138 169.102C14.3079 168.416 14.4223 167.617 14.5788 166.88C16.6177 157.279 24.7403 149.933 33.7733 146.557C42.8063 143.182 52.6869 143.172 62.289 143.749C63.2418 143.806 64.2376 143.883 65.0504 144.394C65.8631 144.905 66.4099 145.998 66.0048 146.88C62.2276 155.11 59.3822 163.786 57.5435 172.679C57.2454 174.121 55.785 175.078 54.3467 175.198C52.9084 175.318 51.4992 174.775 50.1939 174.147C46.1261 172.188 42.506 169.315 38.3302 167.609Z" fill="white"/>
<path fill-rule="evenodd" clip-rule="evenodd" d="M255.983 22.676C256.334 17.1686 255.929 11.6111 254.781 6.21822L254.757 6.10326L254.757 6.10314C254.562 5.19132 254.362 4.25343 254.541 3.34088C254.938 1.32259 257.129 0.10775 259.14 0.150121C261.152 0.192492 263.015 1.17504 264.796 2.13458C273.333 6.7362 282.024 11.454 288.745 18.5375C288.956 24.2722 287.635 29.9315 286.331 35.5182L286.209 36.0432C280.765 59.3933 276.308 82.984 272.853 106.727C272.522 109.003 271.894 111.688 269.784 112.485C268.271 113.057 266.512 112.326 265.437 111.095C264.362 109.865 263.848 108.231 263.489 106.622C262.605 102.651 262.498 98.501 263.178 94.4885C263.594 92.0348 264.296 89.6481 264.999 87.2607L264.999 87.2606C265.63 85.1172 266.261 82.9733 266.685 80.78C267.109 78.5868 267.322 76.3575 267.529 74.132C268.631 62.2973 269.566 50.4463 270.333 38.584C270.441 36.9077 270.54 35.1787 270.003 33.591C269.049 30.7672 266.268 28.9824 263.46 28.164C262.976 28.023 262.484 27.903 261.992 27.7831C260.848 27.5039 259.704 27.2249 258.66 26.6808C257.168 25.9028 255.874 24.3861 255.983 22.676ZM261.199 22.2234C265.169 23.0806 269.049 24.3749 272.749 26.0769C273.495 26.4196 274.278 26.8207 274.681 27.5481C275.01 28.1422 275.028 28.8576 275.038 29.5402C275.155 37.5578 275.179 45.5966 274.35 53.5699C273.853 58.3444 273.051 63.0771 272.25 67.8095L272.249 67.813L272.249 67.8165L272.248 67.82L272.247 67.8235C271.994 69.3168 271.742 70.81 271.498 72.3045C270.291 79.7228 269.319 87.1813 268.585 94.6642C268.052 100.094 267.662 105.705 269.313 110.894C270.16 110.736 270.486 109.692 270.646 108.827L285.9 26.5612C286.269 24.568 286.639 22.5072 286.203 20.5279C285.441 17.0628 282.435 14.6534 279.537 12.6984C273.958 8.93492 268.019 5.72959 261.833 3.14298C261.319 9.48752 261.107 15.8578 261.199 22.2234ZM269.043 76.2517C271.836 61.5807 273.098 46.6051 272.8 31.6615C272.778 30.5328 272.718 29.3199 272.044 28.4267C271.549 27.7722 270.794 27.3888 270.056 27.0507C267.285 25.7807 264.372 24.8357 261.392 24.2401C260.53 24.0677 259.262 24.2545 259.3 25.1529L270.01 29.6815C270.639 29.9471 271.308 30.2475 271.663 30.8407C272.011 31.4224 271.977 32.1532 271.932 32.8338L269.043 76.2517ZM259.077 1.69179C258.194 1.09285 256.918 1.71025 256.426 2.6703C255.934 3.63034 256.009 4.77965 256.12 5.85758C256.284 7.43912 256.499 9.02148 256.715 10.6041C257.312 14.9948 257.91 19.3873 257.402 23.769C258.212 24.0534 259.116 23.4693 259.509 22.6907C259.902 21.9121 259.912 20.9975 259.914 20.1213L259.941 4.32058C259.943 3.35489 259.863 2.22539 259.077 1.69179ZM267.007 110.538C266.521 106.633 266.393 102.681 266.627 98.7523C266.752 96.6516 266.98 94.5584 267.208 92.4656L267.208 92.4647C267.509 89.6965 267.81 86.9291 267.873 84.1461C265.649 90.9208 264.809 98.1678 265.423 105.287C265.583 107.139 265.879 109.081 267.007 110.538ZM268.231 80.1442C268.589 79.9801 268.74 79.4656 268.529 79.1273C268.165 79.3107 268.011 79.8299 268.213 80.1894L268.231 80.1442ZM264.905 46.2143C247.202 35.0432 227.184 28.3501 207.166 22.5748C200.767 20.7285 194.314 18.9594 187.706 18.202C168.128 15.9578 148.28 22.8696 132.001 34.2221C125.472 38.7752 119.173 44.3757 116.353 51.9272C114.26 57.5302 114.274 63.6985 114.476 69.6932C115.172 90.3684 117.765 110.922 120.355 131.439C122.379 131.065 122.579 128.2 122.286 126.116C119.593 106.983 118.083 87.6748 117.768 68.3465C117.68 62.9267 117.708 57.3701 119.541 52.2844C122.859 43.078 131.418 37.057 139.816 32.3187C150.393 26.3506 161.891 21.3338 173.967 21.0675C188.595 20.7449 202.46 27.3841 215.239 34.6758C222.363 38.7409 229.586 43.2804 234.118 50.2198C238.234 56.521 239.729 64.2003 240.809 71.6979C244.236 95.494 244.361 119.642 244.48 143.695C244.485 144.668 244.427 145.783 243.682 146.388C243.173 146.802 242.477 146.853 241.828 146.888L217.963 148.159C229.083 151.431 241.419 150.14 251.663 144.634L278.18 130.38C280.655 129.05 283.209 127.653 284.915 125.387C287.263 122.268 287.599 118.072 287.71 114.137C288.119 99.6036 286.699 85.0174 283.495 70.8524C284.606 86.1756 284.76 101.571 283.956 116.914C283.819 119.535 283.614 122.284 282.221 124.487C280.734 126.841 278.148 128.173 275.684 129.399L247.067 143.63C248.251 120.879 247.333 98.0141 244.327 75.4394C243.316 67.8466 242.027 60.1475 238.631 53.3177C230.606 37.1772 212.843 29.193 196.425 22.4276C220.97 29.775 245.795 37.2439 267.876 50.4432C268.163 48.6196 266.442 47.1838 264.905 46.2143ZM356.361 115.662C357.633 119.018 359.422 122.594 362.71 123.873C363.489 123.935 363.954 122.878 363.699 122.123C363.485 121.492 362.983 121.032 362.49 120.581C362.393 120.492 362.296 120.403 362.202 120.314C360.11 118.325 359.082 115.514 358.071 112.744L358.07 112.743L358.07 112.742C357.87 112.195 357.671 111.65 357.464 111.113C356.211 107.857 354.246 104.455 350.96 103.482C348.935 102.883 346.768 103.33 344.725 103.857C333.181 106.837 322.27 112.362 312.952 119.945C308.898 123.244 304.797 127.921 305.763 133.127C306.129 135.093 307.194 136.839 308.269 138.511C310.314 141.693 312.468 144.802 314.726 147.829C315.714 149.153 316.754 150.492 318.149 151.35C320.511 152.803 323.48 152.645 326.199 152.185C340.251 149.808 352.278 140.873 363.722 132.198C364.317 131.747 364.937 131.266 365.245 130.576C365.554 129.886 365.422 128.927 364.768 128.571C364.018 128.163 363.132 128.727 362.463 129.263C351.814 137.794 340.438 146.13 327.234 149.127C324.731 149.695 321.972 150.03 319.72 148.776C318.035 147.837 316.897 146.151 315.822 144.524L309.161 134.44C308.6 133.59 308.018 132.677 307.998 131.652C307.977 130.627 308.787 129.519 309.78 129.651C319.117 130.893 328.499 131.787 337.899 132.328C338.648 132.371 339.431 132.406 340.112 132.087C340.991 131.676 341.526 130.768 341.995 129.904C345.975 122.563 349.015 114.689 351.013 106.547C353.669 108.496 354.909 111.797 356.092 114.946C356.182 115.186 356.271 115.425 356.361 115.662ZM348.143 105.902C346.365 112.712 343.733 119.287 340.333 125.417C339.764 126.445 339.131 127.503 338.134 128.1C336.866 128.86 335.289 128.717 333.829 128.55L310.571 125.895C314.429 120.677 320.162 117.291 325.889 114.381C331.311 111.627 336.877 109.171 342.555 107.025C344.353 106.346 346.238 105.688 348.143 105.902ZM219.625 251.157C220.199 256.694 220.804 262.348 223.104 267.395L219.34 233.112C219.185 231.701 219.231 229.905 220.499 229.329C221.573 242.233 223.174 255.091 225.296 267.858C225.548 269.374 223.323 270.24 222.073 269.386C220.823 268.533 220.423 266.87 220.139 265.361C218.068 254.359 216.93 243.174 216.741 231.972C214.104 232.503 212.255 235.118 211.722 237.813C211.189 240.507 211.703 243.29 212.217 245.989L217.177 272.049C217.95 276.112 218.723 280.31 217.87 284.356C214.588 269.026 211.95 253.553 209.965 237.992C184.787 253.746 152.344 256.675 124.858 245.677C118.855 243.275 112.894 240.092 108.929 234.892C105.805 230.796 104.139 225.71 103.266 220.592C100.165 202.415 106.519 183.875 115.144 167.67C115.369 167.248 115.596 166.825 115.823 166.4C118.91 160.64 122.126 154.638 121.88 148.122C121.864 147.692 121.834 147.253 121.805 146.811C121.668 144.783 121.527 142.697 122.656 141.089C124.17 143.908 124.747 147.243 124.27 150.422C150.336 149.274 176.441 149.043 202.523 149.729C202.827 150.956 201.09 151.526 199.853 151.507C175.513 151.135 151.161 151.56 126.848 152.779C126.078 152.817 125.269 152.869 124.617 153.288C123.93 153.73 123.53 154.504 123.161 155.242C116.26 169.058 109.337 183.074 106.002 198.208C104.287 205.992 103.63 214.51 107.145 221.631C108.479 224.333 110.365 226.719 112.471 228.844C123.777 240.255 140.707 243.753 156.586 243.48C166.72 243.306 176.832 241.816 186.602 239.056C196.959 236.13 207.289 231.518 214.359 223.239C218.511 218.377 221.333 212.489 223.804 206.548C228.522 195.204 232.142 183.383 234.591 171.312C236.125 171.643 236.147 173.862 235.793 175.424C231.413 194.755 226.323 215.36 211.899 228.625C198.872 240.605 180.514 244.32 163.026 245.322C152.924 245.901 142.662 245.72 132.878 243.085C123.093 240.45 113.75 235.179 107.539 227.007C109.35 234.075 115.487 239.12 121.876 242.384C138.652 250.955 158.462 250.502 176.985 247.523C189.324 245.538 201.989 242.281 211.592 234.108C219.8 227.122 225.031 217.144 228.968 206.99C233.326 195.75 236.35 183.969 237.951 171.988C238.947 171.343 239.686 173.146 239.56 174.345C237.401 194.879 229.713 214.774 217.564 231.266L219.625 251.157ZM207.959 286.269C206.889 284.42 206.2 282.341 205.95 280.207L204.412 285.539L200.531 270.394C200.23 269.219 199.497 267.749 198.336 268.001C197.207 268.247 197.08 269.832 197.249 271C198.094 276.875 199.707 282.634 202.03 288.077L197.903 284.371C197.702 286.135 198.156 287.969 199.153 289.423C197.003 287.803 194.119 287.251 191.542 287.966C193.384 290.584 195.884 292.712 198.734 294.089L195.247 289.108C198.066 290.773 201.019 292.2 204.067 293.369L201.112 289.577L204.763 290.613C201.97 284.11 199.123 277.358 199.191 270.255C200.249 276.033 201.797 281.718 203.812 287.224C204.154 288.157 204.533 289.121 205.261 289.783C205.988 290.445 207.171 290.695 207.933 290.075C208.525 289.593 208.698 288.762 208.833 288L210.477 278.668L212.284 290.241C213.653 286.701 218.107 285.814 221.827 285.79C226.74 285.759 231.689 286.313 236.626 286.865L236.627 286.865C245.526 287.861 254.383 288.852 262.91 286.403C262.659 287.752 262.221 289.064 261.613 290.288C268.493 289.263 275.455 288.813 282.406 288.944C285.342 289 288.286 289.158 291.231 289.316H291.231H291.231H291.232H291.232H291.232H291.233H291.233H291.234C299.018 289.734 306.803 290.152 314.431 288.673L263.808 288.218C264.759 288.161 265.488 287.03 265.164 286.114C264.84 285.198 263.572 284.806 262.806 285.385C262.308 283.765 260.07 283.045 258.756 284.081C259.518 281.678 261.025 279.528 263.005 278.018C260.77 277.895 258.5 278.595 256.703 279.962L262.148 254.177C261.688 253.772 260.92 254.044 260.58 254.559C260.243 255.068 260.206 255.716 260.17 256.331V256.331L260.169 256.35C259.659 265.155 256.625 273.791 251.539 280.912L249.542 275L246.68 282.062C245.383 281.034 243.542 280.775 242.022 281.406C242.41 282.916 243.591 284.186 245.045 284.659L245.722 282.802L250.194 285.867C248.485 284.034 248.115 281.036 249.324 278.826L252.03 283.47L257.275 272.856C257.305 277.118 255.52 281.146 253.77 285.013C255.672 283.489 257.307 281.617 258.574 279.513C259.796 281.729 258.461 284.701 256.334 286.02C254.207 287.339 251.576 287.41 249.091 287.303C245.299 287.139 241.479 286.652 237.663 286.165L237.663 286.165C229.093 285.072 220.548 283.982 212.408 286.564L211.234 275.49C209.441 278.805 208.319 282.498 207.959 286.269ZM259.032 286.565C258.848 286.34 258.849 285.979 259.035 285.755L259.183 285.812C259.431 285.204 260.477 285.254 260.669 285.883C260.186 286.239 259.62 286.475 259.032 286.565ZM286.689 168.905C280.793 165.856 273.777 166.679 267.233 167.597C265.383 167.856 263.498 168.128 261.823 168.971C260.148 169.813 258.689 171.339 258.4 173.226C242.417 171.184 227.1 163.986 215.172 152.91C212.583 150.506 209.941 147.083 211.106 143.71C211.472 142.65 212.184 141.755 212.924 140.924C218.485 134.686 226.153 130.934 233.617 127.332C225.157 128.091 217.04 132.302 211.441 138.834C210.158 140.332 208.975 142.004 208.533 143.944C207.442 148.732 211.077 153.225 214.715 156.438C226.323 166.688 240.923 173.345 256.135 175.322C257.047 175.441 257.094 176.753 257.01 177.69C256.64 181.858 258.86 185.925 261.938 188.682C265.015 191.438 268.869 193.094 272.694 194.576C284.539 199.167 296.832 202.548 309.33 204.653C310.156 204.792 311.29 204.726 311.464 203.888C308.58 201.936 305.108 201.192 301.714 200.465C301.531 200.426 301.348 200.387 301.165 200.347C292.559 198.493 284.069 196.079 275.762 193.124C272.354 191.911 268.938 190.587 265.967 188.493C262.996 186.399 260.472 183.441 259.522 179.879C259.053 178.121 259.69 175.496 261.458 175.717C268.659 176.618 276.057 177.508 283.088 175.68C284.68 175.266 286.338 174.643 287.308 173.287C288.278 171.932 288.154 169.663 286.689 168.905ZM268.526 173.774C266.054 173.339 263.529 173.222 261.029 173.428C262.243 171.067 265.211 170.445 267.795 170.085C273.411 169.303 279.259 168.54 284.64 170.362C284.995 170.482 285.375 170.636 285.567 170.964C285.82 171.397 285.635 171.986 285.275 172.331C284.916 172.676 284.426 172.832 283.951 172.968C278.952 174.398 273.641 174.675 268.526 173.774ZM186.732 292.889C190.869 292.77 195.03 293.706 198.737 295.588C197.746 297.045 195.755 297.249 194.021 297.317L148.709 299.076C148.294 299.023 148.215 298.367 148.51 298.063C148.804 297.758 149.263 297.719 149.681 297.698L193.915 295.491C191.359 295.251 188.866 294.348 186.732 292.889ZM99.5298 139.554C98.8841 142.714 101.497 146.085 104.643 146.324C99.498 154.257 90.2303 158.173 81.3256 160.936C75.768 162.661 69.6031 164.078 64.305 161.644C63.6475 162.055 64.3486 163.067 65.0428 163.41C70.1987 165.952 76.3115 164.535 81.7959 162.86C89.8386 160.405 98.1289 157.23 103.602 150.719C103.826 150.452 104.049 150.178 104.274 149.901C105.682 148.169 107.151 146.363 109.269 145.962C116.087 144.672 121.766 140.302 127.377 135.984L127.379 135.983C128.651 135.004 129.92 134.028 131.198 133.091C138.967 127.393 147.584 122.908 156.66 119.839C157.461 119.567 158.436 119.064 158.365 118.203C147.113 119.26 137.277 126.126 128.208 133.023L127.906 133.253C121.742 137.941 115.302 142.84 107.718 144.002C110.195 142.003 109.672 137.384 106.877 135.886C104.083 134.388 100.176 136.394 99.5298 139.554ZM101.629 141.485C101.124 139.952 101.904 138.128 103.292 137.352C103.685 137.132 104.126 136.985 104.575 136.985C106.056 136.983 107.138 138.604 107.148 140.12C107.158 141.636 106.407 143.034 105.677 144.353C103.97 144.085 102.182 143.159 101.629 141.485ZM270.002 107.709C269.583 107.231 269.712 106.588 269.845 105.921C269.939 105.45 270.036 104.967 269.943 104.523C269.863 104.139 269.643 103.811 269.423 103.482C269.229 103.191 269.033 102.9 268.933 102.567C268.956 102.127 269.531 101.901 269.923 102.084C270.315 102.266 270.534 102.697 270.671 103.114C271.169 104.638 270.913 106.4 270.002 107.709ZM232.07 74.267C233.119 71.7237 235.197 69.4682 237.847 68.952C238.705 68.7849 238.678 67.3382 237.927 66.8834C237.176 66.4286 236.21 66.6974 235.422 67.0813C231.75 68.8696 229.432 72.8059 228.524 76.8615C227.616 80.9172 227.916 85.141 228.221 89.29L229.845 111.344C229.9 112.094 229.967 112.881 230.375 113.506C231.206 114.78 232.989 114.82 234.483 114.723L242.044 114.232C240.364 112.884 238.108 112.317 236.009 112.714C234.783 112.945 233.551 112.118 232.901 111.029C232.252 109.94 232.061 108.637 231.9 107.372C230.846 99.0952 230.46 90.7296 230.746 82.388C230.84 79.6293 231.022 76.8104 232.07 74.267ZM251.377 270.023C250.948 270.342 250.517 269.616 250.454 269.077C247.532 243.944 247.092 218.587 246.654 193.281L246.359 176.221C246.351 175.735 246.358 175.203 246.663 174.831C247.189 174.19 248.294 174.484 248.753 175.176C249.212 175.868 249.212 176.765 249.197 177.602C248.747 202.504 249.042 227.455 251.373 252.247C251.401 252.548 251.43 252.85 251.458 253.152C251.993 258.784 252.535 264.501 251.377 270.023ZM227.083 111.602C226.443 111.242 225.654 111.446 224.953 111.658C192.558 121.461 160.237 131.57 128.392 143.108C127.796 143.324 127.114 143.635 126.977 144.266C126.832 144.935 127.448 145.575 128.107 145.699C128.765 145.823 129.431 145.582 130.06 145.345C161.974 133.333 194.368 122.656 227.135 113.352C227.838 113.152 227.723 111.962 227.083 111.602Z" fill="#00160A"/>
<path fill-rule="evenodd" clip-rule="evenodd" d="M342.504 261.565C341.75 261.904 340.933 262.22 340.121 262.077C339.309 261.934 338.55 261.154 338.713 260.328C340.204 252.774 338.332 244.594 333.718 238.502C332.101 236.367 330.176 234.489 328.601 232.322C327.608 230.956 326.725 229.239 327.228 227.617C327.945 225.309 330.83 224.748 333.192 224.583C338.681 224.2 344.17 223.817 349.66 223.434C352.189 223.258 355.102 223.232 356.791 225.167C361.491 230.554 370.652 230.915 375.744 225.915C376.532 225.142 377.524 226.682 377.493 227.799C377.394 231.311 375.98 234.768 373.603 237.304C373.042 237.902 372.325 238.488 371.519 238.402C370.713 238.316 370.119 237.133 370.762 236.628C372.14 235.544 373.544 234.434 374.51 232.956C375.477 231.477 375.945 229.54 375.286 227.894C371.74 232.484 368.16 237.047 364.547 241.581C358.282 249.444 351.581 257.486 342.504 261.565ZM352.405 238.43C351.504 238.685 350.542 238.489 349.641 238.228C343.162 236.355 337.193 231.175 330.566 232.388C338.293 238.756 342.396 249.434 340.977 259.482C346.069 258.366 350.09 254.477 353.696 250.633C359.034 244.945 364.102 238.991 368.877 232.801C365.445 232.772 362.026 231.759 359.109 229.907C355.507 230.819 355.982 237.417 352.405 238.43ZM357.111 227.97C354.964 225.382 351.107 225.462 347.802 225.759C343.491 226.146 339.18 226.533 334.869 226.921C333.118 227.078 331.108 227.393 330.195 228.929C337.657 230.527 344.932 233.038 351.815 236.39C352.701 233.544 354.475 230.996 356.814 229.211C357.078 229.01 357.379 228.753 357.344 228.419C357.326 228.248 357.219 228.102 357.111 227.97Z" fill="#262447"/>
<path fill-rule="evenodd" clip-rule="evenodd" d="M37.4949 166.233C31.0016 163.576 23.2635 164.364 17.4094 168.278C16.8427 168.657 16.0278 168.235 15.7473 167.604C15.4667 166.974 15.5717 166.241 15.7152 165.564C17.5849 156.744 25.0331 149.995 33.3163 146.894C41.5995 143.792 50.6599 143.784 59.4649 144.314C60.3386 144.367 61.2518 144.436 61.9971 144.906C62.7423 145.375 63.2437 146.379 62.8723 147.19C59.4086 154.751 56.7994 162.721 55.1133 170.891C54.8399 172.215 53.5008 173.094 52.1819 173.205C50.863 173.315 49.5707 172.816 48.3738 172.239C44.6437 170.439 41.3241 167.8 37.4949 166.233ZM38.2372 157.309C37.6584 157.79 36.7539 157.536 36.2094 157.015C35.6649 156.493 35.3546 155.772 34.9266 155.147C32.6307 151.796 27.3621 152.075 24.2392 154.631C21.1162 157.188 19.605 161.228 18.2289 165.07C27.3909 160.999 38.6754 162.46 46.5572 168.739C47.6333 169.596 48.7011 170.562 50.0262 170.892C51.3514 171.222 53.0207 170.629 53.3564 169.276C55.1495 162.051 57.3591 154.933 59.9699 147.974C54.9604 154.345 44.4399 152.153 38.2372 157.309ZM36.2435 153.458C36.758 154.12 37.6921 154.295 38.5053 154.146C39.3185 153.997 40.0573 153.582 40.815 153.245C43.4236 152.085 46.3129 151.826 49.1096 151.296C51.9064 150.765 54.791 149.867 56.7598 147.767C52.3177 147.753 47.8756 147.74 43.4335 147.726C38.9693 147.712 34.1587 147.809 30.5724 150.529C32.7556 150.611 34.883 151.709 36.2435 153.458Z" fill="#262447"/>
<path fill-rule="evenodd" clip-rule="evenodd" d="M246.11 165.624C246.099 161.626 246.089 157.628 246.078 153.63C246.075 152.482 246.072 151.334 246.069 150.186C246.067 149.394 246.197 148.403 246.932 148.157C247.489 147.971 248.101 148.38 248.361 148.916C248.621 149.453 248.618 150.078 248.609 150.676C248.528 156.256 248.447 161.835 248.366 167.414C248.354 168.216 248.223 169.203 247.488 169.485C246.264 168.775 246.114 167.064 246.11 165.624H246.11Z" fill="#00160A"/>
<path fill-rule="evenodd" clip-rule="evenodd" d="M238.309 161.924C237.744 162.178 237.452 161.224 237.539 160.599C237.852 158.36 238.166 156.116 238.698 153.921C239.029 152.555 239.507 151.117 240.61 150.275C241.713 149.434 243.607 149.581 244.147 150.876C244.408 151.503 244.299 152.22 244.179 152.891C243.437 157.044 242.436 161.149 241.187 165.173C241.134 165.344 241.076 165.522 240.949 165.646C240.642 165.948 240.087 165.745 239.874 165.367C239.661 164.99 239.688 164.524 239.722 164.09C240.23 164.052 240.467 163.44 240.589 162.935C241.087 160.869 241.585 158.802 242.083 156.736C242.471 155.129 242.824 153.298 241.922 151.923C240.996 152.507 240.648 153.688 240.372 154.765C239.817 156.931 239.263 159.098 238.708 161.265C238.641 161.524 238.549 161.816 238.309 161.924L238.309 161.924Z" fill="#00160A"/>
</svg>
