<svg width="430" height="430" viewBox="0 0 430 430" fill="none" xmlns="http://www.w3.org/2000/svg">
<rect width="430" height="430" fill="#040408"/>
<path d="M366.066 308.625C363.677 355.216 326.346 397.438 280.586 406.519C234.826 415.601 184.745 391.445 162.448 350.466C159.987 345.944 157.796 341.201 155.605 336.458C149.948 324.214 144.294 311.974 134.011 303.552C122.271 293.935 107.171 291.363 91.9199 288.766C82.2352 287.116 72.4891 285.456 63.5029 281.975C41.8401 273.584 25.02 253.704 20.3312 230.951C12.7329 194.079 36.8005 156.434 68.8955 136.758C100.99 117.081 139.557 111.601 176.966 107.378C191.276 105.763 202.9 94.9786 211.203 83.2114C214.417 78.6559 217.309 73.8691 220.198 69.0858C224.773 61.5135 229.342 53.95 235.176 47.3272C259.88 19.2838 305.884 14.5516 337.35 34.7164C368.815 54.8813 383.876 96.3459 375.509 132.77C374.067 139.043 372.022 145.152 369.976 151.261L369.975 151.262C368.017 157.11 366.058 162.958 364.63 168.952C361.576 181.763 360.994 195.02 360.646 208.186C360.232 223.883 360.134 239.621 361.604 255.254C362.115 260.693 362.816 266.124 363.517 271.555C365.11 283.895 366.702 296.229 366.066 308.625Z" fill="#009FDF"/>
<path d="M176.914 96.2501C194.024 87.7382 207.642 72.9555 216.217 55.8773C217.342 53.6381 218.407 51.2589 218.368 48.7535C218.329 46.2481 216.871 43.5944 214.447 42.9581C210.974 42.0463 207.987 45.3763 205.822 48.2405C190.943 67.9158 169.288 83.3618 144.852 86.7304C135.466 88.0242 125.938 87.5383 116.477 87.0498L101.698 86.2868C89.7959 85.6723 77.728 85.0701 66.0772 87.5817C54.4264 90.0932 43.0422 96.1337 36.6432 106.189C34.6064 109.389 33.0808 113.161 33.6444 116.912C34.2219 120.757 36.9546 124.02 40.2463 126.088C43.538 128.156 47.3622 129.191 51.1522 130.057C53.9271 130.691 56.7612 131.252 59.6005 131.052C64.2425 130.725 68.455 128.417 72.5538 126.171C72.8269 126.022 73.0994 125.872 73.3715 125.724C80.5353 121.816 87.9585 118.345 95.7008 115.766C106.991 112.005 118.863 110.165 130.706 108.329C146.659 105.856 162.56 103.391 176.914 96.2501Z" fill="#009FDF"/>
<path d="M87.9362 323.013L87.9462 323.013C88.6435 323.041 89.3405 323.069 90.0356 323.105C101.03 323.677 111.911 326.373 121.901 331C125.709 332.764 129.567 334.972 131.707 338.583C134.353 343.052 137.531 347.206 141.151 350.931C142.555 352.376 144.076 353.789 145.951 354.527C147.826 355.265 150.141 355.198 151.662 353.877C153.51 352.271 153.63 349.421 153.06 347.04C152.127 343.139 149.8 339.739 147.496 336.455C139.936 325.678 131.978 314.904 121.458 306.991C110.938 299.078 97.3612 294.287 84.4845 297.02C80.0384 297.964 75.6318 299.888 72.684 303.348C69.7363 306.807 68.5714 312.014 70.6944 316.033C72.3787 319.221 75.7931 321.183 79.2888 322.067C82.1063 322.779 85.0241 322.896 87.9355 323.013H87.9362Z" fill="#009FDF"/>
<path d="M385.329 160.926C382.39 159.818 379.061 161.157 376.573 163.074C371.66 166.862 368.753 172.788 367.43 178.849C366.108 184.91 366.215 191.181 366.328 197.384L367.299 250.681C367.37 254.575 367.543 258.772 369.938 261.843C370.687 262.804 371.713 263.648 372.925 263.771C374.395 263.921 375.754 262.994 376.815 261.966C382.619 256.347 383.381 247.496 384.075 239.428L384.101 239.135C385.121 227.293 386.889 215.515 389.389 203.895C390.092 200.627 390.865 197.338 392.335 194.336C396.946 184.926 395.843 172.981 389.588 164.574C388.456 163.053 387.103 161.595 385.329 160.926Z" fill="#009FDF"/>
<path d="M280.048 233.069C283.149 233.923 285.927 236.506 286.232 239.708C286.82 238.434 288.112 237.513 289.508 237.373L287.481 239.527L290.046 239.578L286.517 241.549C288.705 245.595 288.351 250.586 286.948 254.966C286.09 257.648 284.848 260.333 285.09 263.138C285.329 265.897 287.779 268.715 290.456 268.151L290.59 268.12C293.809 267.307 297.334 267.777 300.226 269.407C304.382 271.748 306.903 276.096 309.759 279.916C312.28 283.288 315.264 286.424 318.995 288.378C322.725 290.331 327.299 290.976 331.184 289.354C333.112 288.549 334.839 287.217 336.884 286.793C338.93 286.369 341.026 287.507 341.778 289.445C342.11 290.303 341.396 293.481 339.575 297.192C339.871 297.108 340.181 297.053 340.505 297.032C350.075 296.41 359.733 294.33 367.969 289.416C370.587 287.854 373.033 286.024 375.46 284.179L376.875 283.101L377.731 282.441C383.059 278.314 388.318 273.714 390.509 267.436L390.623 267.099L390.866 266.357C391.334 264.952 391.928 263.5 393.284 263.064C395.161 262.461 396.87 264.277 398.01 265.885L406.23 277.474C406.442 277.771 406.657 278.079 406.738 278.435C407.094 280.01 404.744 280.806 403.229 280.246C400.474 279.229 398.263 276.2 395.373 276.72C393.342 277.085 392.128 279.052 391.124 280.905L390.87 281.378C384.788 292.766 374.552 301.877 362.535 306.599C359.437 307.816 356.237 308.749 353.042 309.68L346.586 311.56L347.723 311.763C357.356 313.452 367.632 314.483 376.38 310.214C382.203 307.373 386.69 302.48 390.922 297.536L392.458 295.731L393.091 294.977C395.688 291.861 398.157 288.526 398.915 284.577C399.206 283.06 401.12 282.337 402.608 282.748C404.097 283.159 405.23 284.336 406.284 285.465L414.275 294.017C414.905 294.691 415.567 295.435 415.66 296.352C415.752 297.27 414.929 298.308 414.044 298.051L405.379 295.534C404.566 295.298 403.666 295.067 402.9 295.429C402.314 295.706 401.936 296.275 401.6 296.835L392.284 312.567C389.661 316.997 384.8 319.565 380.023 321.486C368.568 326.093 356.139 328.257 343.801 327.793C342.461 327.743 341.12 327.662 339.795 327.453C334.818 326.669 330.324 324.138 325.972 321.578C326.735 324.369 326.055 326.723 321.523 326.902C317.509 327.06 307.676 310.532 304.618 309.675C287.928 304.995 285.187 295.756 279.825 289.445C279.825 289.445 268.989 290.846 261.835 289.354C245.065 285.858 233.795 275.103 229.732 274.418C225.669 273.733 222.99 276.337 221.735 274.758L221.735 273.613C221.929 273.299 223.871 271.485 229.41 272.663C237.144 274.308 249.507 280.52 258.949 281.68C268.86 282.898 277.257 281.286 277.21 281.016C277.116 280.463 279.607 278.118 277.617 276.934C275.626 275.75 246.729 264.152 240.448 254.486L240.372 254.366C239.293 252.573 238.472 248.119 240.645 250.158L241.253 249.079C243.593 251.286 251.276 256.329 259.256 261.302C267.693 266.559 279.607 269.925 279.825 269.778C284.681 266.494 280.375 264.116 279.571 263.418C277.69 261.784 275.192 260.893 273.571 259.001C269.683 254.462 272.46 246.342 268.016 242.346C267.343 241.741 266.528 241.266 266.041 240.504C265.206 239.198 265.616 237.382 266.627 236.208C267.638 235.033 269.117 234.378 270.58 233.867C273.617 232.806 276.947 232.215 280.048 233.069Z" fill="white"/>
<circle cx="282.654" cy="256.28" r="1.14667" fill="#FFB61D"/>
<ellipse cx="275.662" cy="256.28" rx="0.85038" ry="1.14667" fill="#FFB61D"/>
<path d="M234.108 261.837C223.447 259.08 212.243 258.444 201.338 259.976C202.163 255.901 203.196 251.867 204.431 247.897C200.883 249.042 196.694 245.79 196.924 242.069C197.153 238.348 201.71 235.635 205.09 237.208C206.251 234.528 206.325 231.395 205.291 228.664C204.795 227.354 206.772 226.598 208.173 226.598L215.915 226.596C216.997 226.596 218.505 226.093 218.237 225.045C217.599 222.559 219.308 219.719 221.803 219.119C224.252 218.529 227.01 220.207 227.643 222.637L227.676 222.773C228.263 225.383 231.57 226.212 234.245 226.161L235.577 226.129C237.891 226.08 240.302 226.155 241.851 227.774C243.703 229.71 243.289 232.792 242.679 235.42L242.638 235.595C241.773 239.242 240.85 242.876 239.871 246.495C241.773 261.799 237.064 262.601 234.108 261.837Z" fill="white"/>
<path d="M145.189 249.059C144.059 241.704 144.06 234.175 145.193 226.82L145.251 226.465C145.532 224.795 146.026 223.033 147.42 222.114C148.465 221.425 149.783 221.374 151.041 221.373L160.67 221.4C161.109 221.401 161.589 221.417 161.918 221.706C162.248 221.995 162.239 222.659 161.816 222.776C160.808 223.055 160.228 224.218 160.351 225.258C160.473 226.297 161.149 227.197 161.943 227.879C163.835 229.506 166.777 230.084 168.872 228.728C170.968 227.371 171.46 223.876 169.475 222.364C173.973 222.272 178.473 222.286 182.97 222.406L184.656 222.456C185.201 222.473 185.804 222.517 186.185 222.907C186.471 223.2 186.565 223.626 186.629 224.031C187.127 227.144 186.583 230.415 185.103 233.199C184.867 233.642 184.321 234.131 183.95 233.794C182.369 232.359 179.712 232.554 178.095 233.947C176.478 235.34 175.853 237.654 176.139 239.769C176.414 241.805 177.897 243.979 179.949 243.876C181.565 243.795 183.362 242.382 184.583 243.443L182.526 252.634C182.16 254.267 181.504 256.204 179.868 256.554C170.423 258.574 160.519 258.422 151.141 256.111L150.686 255.996C149.548 255.698 148.414 255.312 147.526 254.552C145.98 253.229 145.498 251.07 145.189 249.059Z" fill="white"/>
<path d="M219.291 176.935L242.116 177.394L242.489 177.403C243.174 177.424 243.865 177.485 244.482 177.773C245.878 178.424 246.517 180.029 246.942 181.509C249.206 189.41 248.927 198.019 246.154 205.756L246.038 206.073C245.677 207.025 245.205 207.974 244.353 208.509C243.651 208.95 242.796 209.042 241.964 209.087L241.787 209.096C238.393 209.257 234.987 209.17 231.605 208.836C233.366 207.752 233.811 205.113 232.693 203.373C231.575 201.634 229.212 200.907 227.223 201.472C226.01 201.817 224.881 202.645 224.442 203.827C224.003 205.009 224.427 206.526 225.548 207.103C226.323 207.503 226.19 208.759 225.511 209.307C224.832 209.854 223.889 209.893 223.017 209.907L211.566 210.093C210.705 210.106 209.8 210.11 209.044 209.698C207.973 209.113 207.48 207.853 207.178 206.671C206.449 203.817 206.351 200.803 206.892 197.908C207.543 200.195 210.361 201.583 212.571 200.706C214.781 199.83 215.88 196.887 214.786 194.776C213.692 192.665 210.654 191.866 208.663 193.165L208.58 192.428C208.295 189.842 208.073 187.222 208.569 184.675C209.113 181.885 210.665 179.145 213.209 177.877C215.064 176.953 217.207 176.902 219.291 176.935Z" fill="white"/>
<path d="M150.065 202.61C146.851 202.623 143.636 202.491 140.434 202.214L140.123 202.185C138.976 202.071 137.774 201.842 137.022 200.989C136.008 199.838 136.256 198.102 136.56 196.584L136.591 196.433C137.952 189.771 138.487 182.941 138.179 176.148L138.122 174.977C138.037 172.871 138.172 170.483 139.921 169.4C140.453 169.07 141.071 168.917 141.687 168.793L141.892 168.753C153.093 166.571 164.756 166.792 175.866 169.397C177.328 169.74 177.735 171.722 177.25 173.144C176.765 174.566 175.723 175.761 175.334 177.212C174.944 178.664 175.658 180.628 177.16 180.675C180.286 180.773 182.935 183.949 182.515 187.047C182.095 190.146 178.746 192.496 175.68 191.881C174.96 191.737 174.706 192.8 174.784 193.53L175.659 201.619C175.802 202.939 173.929 203.356 172.605 203.253L164.88 202.652C163.666 202.558 162.039 202.767 161.852 203.97C161.386 206.965 158.316 209.303 155.305 208.956C152.294 208.608 149.837 205.632 150.065 202.61Z" fill="white"/>
<path fill-rule="evenodd" clip-rule="evenodd" d="M129.273 252.394C130.13 252.603 131.357 252.973 131.289 253.783C129.917 270.118 124.013 267.112 118.748 271.796C117.357 273.033 116.526 275.96 115.928 276.028C118.144 277.051 121.36 281.156 126.893 281.344C142.311 281.867 147.923 270.616 147.923 270.616C148.286 267.009 146.457 260.512 148.74 262.331C150.316 263.587 150.005 257.47 152.158 258.079C152.805 258.262 151.675 262.329 152.158 262.573C152.425 262.707 152.82 261.598 153.508 260.716C154.083 259.981 154.969 259.436 155.152 259.596C155.276 259.705 155.157 260.757 154.64 261.646C153.913 262.896 152.698 264.099 152.868 264.3C153.055 264.521 156.26 261.538 156.455 261.799C157.752 263.529 149.538 283.44 135.677 287.199L134.58 287.494C126.5 289.641 123.107 289.934 115.621 287.199C112.071 285.903 109.864 298.012 107.891 302.043C106.645 304.588 100.594 310.825 97.8307 308.939C94.1852 306.45 91.2126 301.818 88.1103 299.475L87.9109 299.329C85.7968 297.813 81.0148 295.512 73.5651 292.428L73.9007 292.272C75.4551 291.566 79.4585 289.838 82.5325 287.199C86.9004 283.449 89.266 275.394 92.3108 271.05C95.3171 266.761 99.3514 267.393 96.9166 266.634C96.9166 266.634 90.7471 263.365 87.9109 263.066C78.4391 262.066 66.0914 266.543 62.1414 269.427C56.7215 273.386 62.1064 279.21 54.6175 276.355C52.1216 275.404 58.8113 263.077 68.039 258.079C80.8652 251.132 92.993 249.221 105.152 260.28C110.1 264.78 110.59 268.787 111.917 271.842L111.646 271.093C126.314 270.126 104.336 255.441 122.684 251.766C124.611 251.38 126.633 251.782 128.565 252.228L129.273 252.394Z" fill="white"/>
<circle cx="119.827" cy="262.587" r="1.14667" fill="#FFB61D"/>
<circle cx="126.133" cy="264.88" r="1.14667" fill="#FFB61D"/>
<path fill-rule="evenodd" clip-rule="evenodd" d="M59.5654 307.056C71.9945 315.662 56.0919 303.775 69.672 317.941C72.4144 320.802 86.2994 304.463 87.7318 314.146C88.2542 317.678 87.1149 321.355 87.8095 324.857C88.4576 328.125 102.671 326.163 103.769 324.734C107.749 319.553 95.3631 306.243 92.7661 304.116C78.2739 292.244 73.4917 293.068 59.9507 305.351L59.5654 307.056Z" fill="white"/>
<path fill-rule="evenodd" clip-rule="evenodd" d="M382.893 91.9366C385.331 92.228 387.598 92.499 387.598 89.6576C387.598 88.9816 379.393 83.043 376.962 85.3299C373.835 88.2709 371.352 91.6435 368.947 94.9101C363.898 101.768 359.193 108.159 349.599 109.111L349.483 109.124C345.764 109.573 352.693 112.874 360.474 109.111C365.824 106.524 372.942 98.3396 376.323 94.452C377.208 93.4347 377.837 92.7117 378.111 92.4602L378.181 92.3998C379.334 91.5112 381.157 91.7291 382.893 91.9366ZM394.467 99.6266L402.585 106.07C404.167 107.326 402.314 110.031 400.299 110.161C399.13 110.236 398.009 109.876 396.882 109.514C396.067 109.253 395.248 108.99 394.406 108.891C389.639 108.327 386.004 112.817 383.047 116.598C380.345 120.054 377.385 123.309 374.202 126.327L373.771 126.732L373.323 127.145C370.762 129.473 367.89 131.582 364.511 132.189C359.537 133.084 354.596 130.537 350.533 127.531C349.541 126.797 348.568 126.028 347.593 125.258C344.576 122.873 341.553 120.484 337.975 119.145C334.873 120.838 331.971 122.882 329.321 125.215L329.439 125.122C333.888 129.582 337 135.361 338.274 141.531L337.423 141.381L336.861 141.285C331.603 140.404 325.972 139.882 321.528 142.696C319.962 143.687 318.566 145.072 317.185 146.441L317.185 146.441L317.185 146.441C316.223 147.394 315.27 148.34 314.271 149.14C314.525 149.291 314.784 149.448 315.05 149.61C319.967 151.621 325.179 152.91 330.467 153.42C331.275 153.498 332.092 153.56 332.911 153.623C336.704 153.911 340.545 154.202 343.787 156.107L344.924 156.786C346.748 157.866 348.779 158.894 350.307 157.644C350.747 157.284 351.035 156.791 351.323 156.296C351.499 155.994 351.675 155.692 351.887 155.419C352.445 154.696 353.553 154.187 354.247 154.781L354.529 156.99C354.733 155.569 356.105 154.413 357.54 154.453C358.975 154.493 360.28 155.723 360.405 157.153C360.632 159.75 357.689 161.304 355.19 162.13L342.239 166.304C337.611 167.795 332.481 167.023 328.02 165.09C323.867 163.29 320.203 160.551 316.701 157.672L315.925 157.03C313.28 154.829 309.706 152.439 306.706 154.122C311.919 154.439 315.721 158.932 318.831 163.181L319.13 163.591C319.633 164.285 320.151 165.015 320.275 165.863C320.624 168.238 317.926 169.814 315.648 170.569C317.568 171.597 316.617 174.583 315.129 176.173C312.965 178.487 310.131 180.153 307.074 180.977L306.795 181.943C306.777 182.008 306.769 182.042 306.771 182.043C308.213 181.943 309.102 183.88 308.514 185.2C307.927 186.521 306.477 187.224 305.086 187.618C300.503 188.914 295.326 187.891 291.58 184.95L290.851 185.33C287.686 186.968 284.412 188.491 280.894 189.008C277.105 189.564 272.935 188.783 270.196 186.107L270.376 186.501C270.764 187.36 271.112 188.249 271.124 189.185C271.138 190.265 270.58 191.431 269.557 191.777C267.869 192.349 266.394 190.545 265.518 188.993C265.038 190.188 265.533 191.532 266.014 192.84C266.563 194.331 267.094 195.774 266.14 196.891C265.146 198.054 263.261 197.756 261.894 197.07C256.772 194.501 254.365 188.034 255.475 182.411C256.584 176.789 260.627 172.081 265.441 168.972C262.173 166.576 259.782 163.01 258.808 159.076C259.067 159.411 260.226 158.334 261.872 156.804C264.883 154.006 269.525 149.691 273.275 149.732C273.993 149.739 275.153 150.295 276.29 150.84C277.113 151.234 277.923 151.622 278.544 151.792C278.596 151.726 278.658 151.666 278.73 151.613L278.021 151.103C276.593 150.09 275.103 149.136 273.413 148.716C271.441 148.226 269.107 148.629 267.85 150.226C264.779 154.131 260.887 157.387 256.502 159.722L259.101 164.521C258.027 165.034 256.688 164.941 255.691 164.293L255.569 164.21L255.646 164.306C257.143 166.259 255.827 169.663 253.376 170.05C250.889 171.093 248.38 167.976 248.625 165.29C248.797 163.407 249.73 161.739 250.664 160.067L250.664 160.067C251.063 159.354 251.462 158.64 251.803 157.908C252.953 155.437 253.458 152.692 253.961 149.964C254.649 146.225 255.332 142.52 257.66 139.597C259.29 137.551 261.573 136.127 263.915 134.96C273.209 130.328 284.207 129.22 294.238 131.906C295.947 125.785 299.334 120.142 303.932 115.755L304.206 115.498C305.965 113.877 308.153 112.429 310.486 112.695L310.67 112.719C312.987 113.073 315.001 111.285 316.685 109.63L317.204 109.121L317.611 108.729C320.953 105.537 324.832 102.592 329.397 102.274C333.459 101.991 337.346 103.856 340.852 105.926C344.818 108.269 348.591 110.939 352.119 113.9L352.74 114.425C352.9 114.562 353.06 114.7 353.222 114.839L353.222 114.839L353.236 114.851L353.239 114.854C356.566 117.712 360.207 120.839 364.539 120.58C368.979 120.314 372.224 116.628 375.213 113.231L375.214 113.229L375.219 113.224C375.459 112.951 375.697 112.681 375.934 112.414C379.622 108.263 383.821 104.608 388.071 101.029L389.894 99.4977C390.446 99.0353 391.04 98.5537 391.753 98.461C392.758 98.3306 393.674 98.9968 394.467 99.6266ZM314.204 169.992C313.301 169.813 312.07 169.891 310.51 170.228C311.537 170.232 312.402 170.214 313.104 170.173C313.444 170.131 313.783 170.078 314.115 170.011L314.204 169.992ZM280.776 150.116C281.106 149.778 281.453 149.422 281.838 149.117C282.555 148.739 283.362 148.548 284.175 148.625C286.925 148.886 289.007 151.811 288.648 154.55C287.196 158.147 283.603 160.2 280.05 162.23L280.05 162.23C277.861 163.481 275.687 164.723 274.038 166.312C274.452 165.63 274.905 165.085 275.364 164.75C276.798 163.706 278.298 162.802 279.711 161.949C280.9 161.232 282.027 160.553 283.003 159.858C284.538 158.764 285.57 157.724 286.369 156.919C286.981 156.303 287.456 155.824 287.917 155.562C287.955 155.541 289.688 152.028 285.499 149.732C282.335 147.998 280.926 150.191 280.168 151.37C279.923 151.752 279.746 152.028 279.6 152.028C279.561 152.028 279.509 152.022 279.442 152.01C279.547 151.636 279.706 151.275 279.91 150.937C280.194 150.714 280.477 150.423 280.776 150.116ZM281.67 149.21C280.951 149.627 280.334 150.232 279.91 150.937L279.806 151.016C279.597 151.168 279.388 151.279 279.172 151.33C278.736 151.433 277.7 150.637 276.821 149.964C276.296 149.561 275.828 149.201 275.579 149.104C273.936 148.46 273.744 148.451 272.605 148.397C272.413 148.387 272.193 148.377 271.936 148.362L271.463 148.333C271.36 148.327 271.245 148.322 271.124 148.317C270.18 148.277 268.822 148.22 269.093 147.486C273.944 134.355 294.673 131.498 291.246 146.341C290.963 147.568 290.218 148.643 289.474 149.717L289.474 149.717C289.102 150.254 288.73 150.791 288.416 151.347C287.076 149.444 285.617 148.441 284.038 148.337C283.157 148.28 282.45 148.633 281.838 149.117L281.67 149.21ZM319.271 137.43L319.275 137.423C318.134 139.591 316.909 142.201 315.6 145.253C316.584 142.542 317.817 139.922 319.271 137.43ZM328.513 139.43L328.354 139.436C327.089 139.489 325.954 139.679 324.95 140.004C323.836 140.365 322.65 140.969 321.393 141.815C323.593 140.597 326.024 139.782 328.513 139.43Z" fill="white"/>
<path fill-rule="evenodd" clip-rule="evenodd" d="M263.834 194.425C262.841 195.588 261.4 195.213 260.08 193.926C257.319 191.234 256.209 186.039 257.319 180.417C258.429 174.795 262.754 172.478 267.567 169.369C265.407 168.479 261.494 162.838 261.101 157.356C262.433 159.074 262.503 162.158 263.834 163.876C265.098 165.506 267.623 167.491 268.886 169.121C269.047 169.33 269.187 169.679 268.958 169.809C264.343 172.431 261.352 173.298 258.63 180.417C255.909 187.535 261.435 194.12 262.169 193.926C263.074 193.687 262.753 192.487 262.233 191.709C260.768 189.514 262.162 186.587 263.357 184.234C263.995 184.95 262.46 187.004 262.783 189.14C263.099 191.225 264.719 193.389 263.834 194.425Z" fill="#E7EAEE"/>
<circle cx="282.654" cy="170.853" r="1.14667" fill="#FFB61D"/>
<circle cx="278.64" cy="166.267" r="1.14667" fill="#FFB61D"/>
<path d="M107.162 177.528C107.825 178.765 106.783 180.534 105.379 180.554C104.177 173.797 102.881 166.806 98.9699 161.166C91.4808 150.368 76.0481 146.822 69.6362 135.351C65.2704 138.459 58.5947 137.666 55.0773 133.624C52.8898 131.11 49.0767 130.801 45.7916 131.362C42.5065 131.923 39.297 133.163 35.966 133.057C34.5207 133.012 32.9459 132.623 32.1047 131.447C31.2635 130.27 31.7495 128.2 33.181 127.996C39.4174 127.103 45.6538 126.21 51.8902 125.317C52.38 125.247 52.8997 125.164 53.2715 124.838C53.6921 124.468 53.8242 123.878 53.9333 123.329C54.8362 118.785 55.4867 113.368 52.1409 110.164C49.3679 107.509 44.9914 107.6 41.2241 108.341C37.4569 109.082 33.5743 110.301 29.8616 109.323C26.1489 108.345 23.044 103.934 25.0455 100.658C26.386 98.4633 24.8745 95.5366 22.8067 94.0079C20.7389 92.4791 18.1656 91.7262 16.1613 90.115C14.157 88.5039 12.885 85.3952 14.4815 83.3792C15.1836 82.4926 16.283 82.0255 17.3615 81.6852C20.9312 80.5591 24.9115 80.4733 28.3524 81.9466C31.7933 83.4199 34.5876 86.5777 35.1476 90.2787C35.6037 93.2938 34.7369 96.8014 36.7301 99.1093C39.3361 102.127 44.1525 100.434 48.1392 100.398C52.2167 100.361 56.2488 102.523 58.4744 105.939C60.7001 109.356 61.0478 113.918 59.3657 117.633C64.1019 112.814 70.4811 109.117 77.2332 109.369C83.4698 109.601 89.2002 113.188 93.3713 117.831C97.5424 122.473 100.388 128.127 103.178 133.709C104.218 135.789 106.854 136.916 109.076 136.231C111.298 135.545 112.841 133.128 112.527 130.824C114.464 131.246 114.665 133.864 114.725 135.844C114.85 140.006 116.357 144.115 118.953 147.371C119.821 145.769 120.483 144.056 120.919 142.287C122.813 144.465 123.52 147.617 122.737 150.396C121.954 153.174 119.705 155.493 116.952 156.361C115.487 156.823 113.696 157.045 112.969 158.399C115.716 163.209 118.079 168.239 120.027 173.424C121.072 176.205 121.826 179.783 119.627 181.779C117.084 179.902 115.639 176.924 114.29 174.065C112.185 169.606 110.08 165.147 107.976 160.688" fill="white"/>
<path fill-rule="evenodd" clip-rule="evenodd" d="M114.104 132.895C113.551 138.294 115.572 143.9 119.443 147.705C120.823 146.872 121.705 145.274 121.675 143.662C123.125 146.047 122.313 149.281 120.509 151.411C118.706 153.542 116.118 154.819 113.607 156.038C112.168 156.736 110.675 157.449 109.076 157.497C106.637 157.57 104.452 156.103 102.458 154.697L96.6071 150.572C99.6298 156.212 106.51 159.497 112.797 158.301C117.169 164.434 119.846 171.762 120.456 179.269L119.281 177.098C119.27 177.071 119.256 177.045 119.238 177.019L119.281 177.098C119.45 177.514 118.79 177.975 118.345 177.76C117.872 177.531 117.693 176.961 117.554 176.454C115.832 170.213 112.748 164.352 108.578 159.399L114.892 172.775C116.241 175.634 117.686 178.612 120.229 180.489C122.428 178.493 121.675 174.915 120.63 172.134C118.681 166.949 116.318 161.919 113.571 157.109C114.161 156.01 115.454 155.657 116.703 155.316C116.992 155.237 117.279 155.158 117.554 155.072C120.307 154.204 122.556 151.884 123.339 149.106C124.122 146.328 123.415 143.175 121.521 140.997C121.086 142.766 120.423 144.479 119.555 146.081C116.96 142.825 115.453 138.717 115.327 134.555C115.268 132.574 115.066 129.957 113.13 129.535C113.443 131.838 111.9 134.255 109.678 134.941C107.457 135.627 104.82 134.499 103.78 132.42C100.99 126.837 98.1448 121.183 93.9737 116.541C89.8026 111.899 84.0722 108.311 77.8356 108.079C71.0835 107.827 64.7043 111.524 59.968 116.343C61.6501 112.628 61.3024 108.066 59.0768 104.65C56.8512 101.233 52.8191 99.0711 48.7416 99.1082C47.7073 99.1177 46.6172 99.2386 45.5243 99.3598C42.4046 99.7057 39.2624 100.054 37.3325 97.8196C35.9695 96.2414 35.9439 94.1021 35.9181 91.943C35.9061 90.9447 35.8941 89.9423 35.7499 88.989C35.19 85.2881 32.3957 82.1302 28.9548 80.6569C25.5139 79.1836 21.5336 79.2695 17.9639 80.3956C16.8853 80.7358 15.786 81.2029 15.0838 82.0896C13.4874 84.1055 14.7594 87.2142 16.7637 88.8254C17.8185 89.6733 19.031 90.2835 20.2444 90.8943L20.2444 90.8943L20.2444 90.8943L20.2444 90.8943C21.3366 91.444 22.4295 91.9941 23.4091 92.7182C25.4769 94.2469 26.9884 97.1736 25.6479 99.3681C23.6464 102.645 26.7513 107.055 30.464 108.033C33.5331 108.842 36.7182 108.149 39.8584 107.466L39.8586 107.466C40.517 107.323 41.1735 107.18 41.8265 107.052C45.5938 106.311 49.9703 106.219 52.7432 108.875C56.0891 112.079 55.4385 117.496 54.5357 122.039C54.4266 122.588 54.2945 123.179 53.8738 123.548C53.502 123.874 52.9823 123.958 52.4926 124.028L33.7834 126.706C32.3519 126.911 31.8659 128.981 32.7071 130.157C33.5483 131.333 35.123 131.722 36.5684 131.768C38.7784 131.838 40.9349 131.315 43.0955 130.792C44.1914 130.527 45.2884 130.261 46.394 130.072C49.6791 129.511 53.4921 129.82 55.6796 132.334C59.197 136.377 65.8727 137.169 70.2385 134.062C73.6125 140.097 79.4844 143.939 85.3822 147.798C90.6925 151.273 96.024 154.761 99.5723 159.877C103.484 165.516 104.78 172.508 105.982 179.265C107.385 179.245 108.427 177.476 107.764 176.238L106.446 177.978C105.958 167.328 100.519 157.007 92.01 150.586C89.9027 148.996 87.5919 147.601 85.286 146.21L85.2858 146.21C80.2189 143.154 75.1759 140.111 72.3703 135.034C72.1176 134.577 71.8823 134.093 71.8414 133.572C71.7897 132.913 72.0523 132.277 72.3058 131.664L72.342 131.577C73.3533 129.123 74.0598 126.431 73.563 123.824C73.0662 121.217 71.1037 118.752 68.4791 118.36C72.9217 121.202 73.8324 128.254 70.2575 132.131C66.6826 136.008 59.5798 135.671 56.388 131.473C53.83 128.108 48.7148 128.52 44.5975 129.475C40.4802 130.429 35.6316 131.427 32.4509 128.644C39.2557 126.773 46.2578 125.621 53.3033 125.213C54.9817 125.116 55.6401 123.023 55.8661 121.357C56.2136 118.796 56.5612 116.193 56.1804 113.637C55.7997 111.081 54.5847 108.531 52.4156 107.126C49.8108 105.439 46.448 105.7 43.3614 106.023L35.1586 106.882C33.3912 107.066 31.5748 107.248 29.8611 106.777C28.1475 106.307 26.5351 105.029 26.2065 103.282C25.999 102.179 26.3148 101.093 26.6332 99.9981C26.8623 99.2098 27.0929 98.4168 27.1305 97.6097C27.2375 95.3115 25.7528 93.2056 23.9487 91.7778C22.8434 90.903 21.6117 90.2146 20.3789 89.5256C19.5996 89.09 18.8198 88.6542 18.0712 88.1709C16.6621 87.2611 15.2163 85.7911 15.6081 84.1602C15.8586 83.1172 16.8024 82.3942 17.7513 81.894C20.9551 80.2052 24.9595 80.1293 28.225 81.6955C31.4904 83.2616 33.9379 86.432 34.6264 89.9875C34.7962 90.8646 34.8734 91.7807 34.9504 92.6949C35.1286 94.8097 35.306 96.9146 36.6273 98.5035C38.2056 100.401 40.9335 100.88 43.3992 100.762C44.2445 100.722 45.0898 100.627 45.9345 100.532L45.9345 100.532C47.5533 100.351 49.1695 100.17 50.779 100.373C56.1908 101.054 60.4547 106.685 59.6435 112.079C59.5986 112.377 59.5409 112.678 59.483 112.98C59.2765 114.056 59.068 115.143 59.4355 116.153C59.9061 117.447 61.9646 118.137 62.6169 116.924C65.5393 111.489 72.2423 108.752 78.3707 109.469C84.4992 110.187 89.9837 113.877 94.0072 118.555C98.0307 123.233 100.768 128.863 103.264 134.506C104.143 136.493 106.761 137.213 108.852 136.622C110.944 136.03 112.603 134.467 114.104 132.895ZM103.527 143.034L103.527 143.034C104.038 144.036 104.974 145.867 106.207 146.424C106.153 146.943 105.336 146.665 104.997 146.269C104.033 145.142 103.009 143.845 103.122 142.366C103.181 142.358 103.319 142.627 103.527 143.034ZM106.033 151.261C106.67 152.194 102.857 152.658 101.59 151.844C101.813 151.801 102.107 151.824 102.433 151.849C102.819 151.879 103.249 151.913 103.659 151.844C104.258 151.743 104.836 151.559 105.273 151.421L105.273 151.42C105.697 151.286 105.987 151.193 106.033 151.261ZM105.118 147.794C103.6 148.054 101.736 146.032 101.736 144.131C102.173 145.537 103.727 146.652 104.586 147.268C105.023 147.582 105.28 147.766 105.118 147.794ZM110.556 155.744C108.534 155.744 107.618 152.335 108.534 152.116C108.754 152.017 108.764 152.322 108.779 152.773C108.795 153.247 108.817 153.882 109.092 154.377C109.398 154.926 110.047 155.293 110.425 155.507C110.711 155.669 110.843 155.744 110.556 155.744ZM112.808 151.102C113.252 151.347 113.657 151.726 113.772 152.219C113.886 152.713 113.611 153.311 113.114 153.414C112.959 153.186 113.043 153.04 113.132 152.887C113.263 152.663 113.403 152.421 112.808 151.872C112.557 151.642 112.266 151.541 112.061 151.471C111.904 151.417 111.798 151.38 111.802 151.316C111.828 150.906 112.448 150.904 112.808 151.102ZM109.024 146.66C108.924 146.73 108.855 146.778 108.914 146.833C109.097 147.002 109.312 147.084 109.527 146.96C109.691 146.866 109.774 146.675 109.812 146.491C110.028 145.458 108.937 144.391 107.91 144.63C108.001 144.87 108.175 144.947 108.387 145.04C108.632 145.148 108.926 145.278 109.199 145.706C109.568 146.282 109.23 146.517 109.024 146.66ZM108.679 156.396C107.488 156.049 106.311 153.238 106.945 153.025C107.34 152.893 107.338 152.914 107.315 153.136C107.294 153.34 107.255 153.712 107.488 154.289C107.777 155.006 108.183 155.587 108.441 155.957C108.617 156.211 108.725 156.365 108.679 156.396ZM109.149 178.826C109.363 179.108 109.854 178.984 110.043 178.684C110.232 178.384 110.208 178.002 110.174 177.649C109.68 172.544 108.355 167.521 106.267 162.836C105.673 161.502 105.048 159.838 105.958 158.696C108.062 163.956 110.185 169.281 110.951 174.894C111.16 176.427 111.236 178.104 110.381 179.393C109.527 180.682 107.399 181.176 106.45 179.956C107.91 179.651 109.026 178.173 108.921 176.685C109.595 177.145 109.711 178.235 109.149 178.826ZM126.16 280.185C133.797 279.766 142.643 278.663 146.649 272.148C147.688 270.459 147.466 267.803 147.284 265.614C147.137 263.855 147.015 262.399 147.593 261.987C148.889 261.063 149.925 263.446 149.925 263.446C149.964 263.288 150.007 263.093 150.056 262.873L150.056 262.873C150.418 261.249 151.085 258.259 152.132 258.821C152.563 259.052 152.414 260.506 152.312 261.505V261.505L152.312 261.505C152.288 261.739 152.267 261.949 152.256 262.111C152.232 262.265 152.229 262.395 152.247 262.486C152.251 262.484 152.254 262.483 152.258 262.481C152.269 262.475 152.281 262.469 152.293 262.461C152.304 262.459 152.317 262.449 152.333 262.43C152.502 262.287 152.734 261.934 152.992 261.541C153.527 260.726 154.174 259.742 154.607 260.104C155.288 260.672 152.868 264.3 152.868 264.3C152.868 264.3 155.742 261.142 155.984 262.486C156.227 263.83 149.682 275.968 143.774 280.729C137.867 285.49 129.543 288.155 122.016 287.201C122.184 284.215 123.175 280.348 126.16 280.185ZM152.739 260.819C152.99 260.379 153.332 259.958 153.755 259.691C156.031 258.251 155.266 260.48 154.912 261.512C154.822 261.774 154.758 261.959 154.778 261.987C154.81 262.033 154.952 261.929 155.141 261.79C155.492 261.534 156.006 261.157 156.295 261.384C157.07 261.754 156.203 265.097 155.522 266.53L155.429 266.725C151.951 273.935 146.787 280.514 139.889 284.575C132.991 288.637 124.24 289.918 116.83 286.888C114.239 285.828 112.061 289.056 111.103 291.687L108.234 299.562C106.769 303.584 104.885 308.05 100.892 309.59C104.473 318.926 105.625 329.182 104.204 339.079C103.712 342.509 102.806 346.1 100.319 348.512C96.1048 352.601 89.2477 351.735 83.6239 350.046L80.7781 349.179C75.9871 347.737 70.9996 346.494 66.4629 348.328C65.6498 348.656 64.8757 349.078 64.1026 349.499C63.0129 350.093 61.9253 350.686 60.7338 351.015C58.6968 351.577 56.0748 351.029 55.2835 349.07C57.4785 344.775 60.5251 340.918 64.1943 337.789C64.7564 337.309 65.4211 336.819 66.1549 336.904C67.0042 337.002 67.4736 337.755 67.9519 338.521C68.1848 338.895 68.4198 339.271 68.7019 339.578C69.8004 340.77 71.6148 340.843 73.249 340.797L92.0168 340.188C90.0875 335.816 88.8046 331.16 88.2226 326.417L93.9316 340.704C89.9751 341.722 85.8546 342.101 81.7787 341.82L81.1937 341.777L80.8882 341.753H80.8879C79.2291 341.62 77.5542 341.487 75.9594 341.925C74.0785 342.441 72.3141 344.029 72.341 345.98L88.4461 349.741C91.0966 350.349 93.8996 350.856 96.4161 349.878C100.406 348.328 102.172 343.677 102.835 339.448C103.448 335.547 103.514 331.559 103.032 327.639L103.003 327.419C102.931 326.938 102.799 326.449 102.425 326.154C102.067 325.873 101.583 325.847 101.123 325.852L88.324 326.078C86.0369 326.119 85.3755 322.826 86.1827 320.686C86.368 320.195 86.59 319.7 86.813 319.203C87.5614 317.534 88.3207 315.842 87.7406 314.178C86.649 311.046 81.9936 311.228 79.1869 312.994C78.3574 313.516 77.5615 314.127 76.7665 314.737C74.9408 316.138 73.1203 317.535 70.9104 317.843L70.6583 317.873C67.6704 318.171 65.202 320.201 62.9591 322.23L35.5724 347.2C35.1391 347.596 34.6648 348.01 34.0822 348.077C33.5059 348.143 32.9593 347.854 32.4623 347.544L32.3566 347.478C28.2741 344.888 24.5302 341.766 21.2499 338.214C19.7687 336.611 21.9585 333.956 24.1406 333.894C25.4372 333.857 26.6659 334.292 27.9008 334.729L27.901 334.729C28.7443 335.028 29.5905 335.328 30.4633 335.479C35.2903 336.314 39.62 332.595 42.9544 329.006C49.0872 322.405 54.6557 315.28 59.5792 307.734L58.0279 305.81L78.2495 293.788C77.1499 293.65 76.1891 292.749 75.9794 291.661C81.4954 290.59 84.7899 285.08 87.3053 280.028L87.6508 279.333C90.1421 274.345 93.2675 268.945 98.6493 267.668C94.7051 263.48 88.5806 261.884 82.8413 262.288C77.2614 262.68 71.9465 264.741 66.8451 267.049L66.4084 267.247C64.2427 268.235 61.8365 269.586 61.3963 271.926C61.3066 272.403 61.3084 272.893 61.3102 273.382C61.3125 274.009 61.3149 274.634 61.1241 275.227C60.7846 276.281 59.3105 277.077 58.5897 276.235C59.0526 277.668 57.2105 279.066 55.7899 278.566C54.3692 278.067 53.6762 276.353 53.8696 274.859C54.063 273.366 54.9316 272.055 55.8191 270.838C62.9347 261.084 73.7984 253.127 85.8727 253.108C96.3011 253.093 106.475 259.502 110.964 268.915C111.879 270.835 115.112 270.239 116.062 268.335C117.012 266.431 116.351 264.131 115.459 262.199L115.25 261.753C115.226 261.703 115.202 261.652 115.178 261.602C115.161 261.565 115.143 261.529 115.126 261.493L115.014 261.261C114.232 259.635 113.437 257.985 113.459 256.201C113.463 255.856 113.498 255.512 113.533 255.168C113.585 254.66 113.637 254.152 113.588 253.644C113.547 253.208 113.431 252.78 113.316 252.353C113.151 251.745 112.988 251.14 113.039 250.517C113.127 249.458 114.391 248.424 115.205 249.107C114.69 246.111 117.672 243.066 120.679 243.519C122.216 243.751 123.482 244.676 124.759 245.609C125.712 246.306 126.672 247.008 127.754 247.427C130.349 248.434 133.555 247.548 135.265 245.353C136.37 247.238 135.289 249.642 133.973 251.386L133.715 251.724L133.598 251.875C133.533 251.96 133.467 252.045 133.401 252.129C132.226 253.637 131.01 255.197 130.954 257.071C130.764 263.414 126.102 269.369 119.99 271.076C117.583 271.748 117.581 275.554 119.498 277.157C121.359 278.714 123.999 278.77 126.438 278.706L127.434 278.677C131.705 278.545 136.072 278.288 139.919 276.462C144 274.526 147.367 270.329 146.875 265.839C146.844 265.558 146.799 265.273 146.754 264.989C146.606 264.049 146.457 263.103 146.808 262.239C147.266 261.113 149.156 260.625 149.61 261.752C149.326 260.337 150.926 257.673 152.562 257.886C153.528 258.011 153.131 259.577 152.739 260.819ZM152.739 260.819C152.689 260.977 152.639 261.129 152.592 261.273C152.383 261.916 152.231 262.382 152.388 262.346C152.367 262.383 152.349 262.411 152.333 262.43C152.319 262.442 152.306 262.452 152.293 262.461C152.247 262.468 152.242 262.333 152.256 262.111C152.312 261.76 152.476 261.279 152.739 260.819ZM104.725 303.897C103.828 305.912 102.345 308.284 100.156 308.016C98.9836 307.873 98.0981 306.988 97.3015 306.079L96.8747 305.584C92.2477 300.213 85.9621 296.643 79.6446 293.357L77.5398 292.27C82.6858 291.258 85.8604 286.168 88.1272 281.439L88.8496 279.932C90.9224 275.635 93.281 271.213 97.5563 269.278C98.1472 269.011 98.825 268.798 99.4344 269.02C99.5268 269.054 99.6264 269.092 99.7302 269.132C100.483 269.421 101.452 269.794 101.436 269.081C100.064 268.528 99.8389 266.527 100.63 265.278C101.353 264.137 102.604 263.478 103.843 262.911L104.196 262.751C103.406 261.661 101.693 262.578 100.798 263.583L100.724 263.665C99.826 264.651 98.4473 265.73 97.4107 264.929C93.127 261.619 87.4179 260.556 82.0295 261.076C76.6411 261.596 71.5001 263.566 66.5774 265.818C64.7733 266.644 62.9407 267.544 61.6018 269.008C60.566 270.14 60.4586 271.648 60.3508 273.164L60.3507 273.164C60.3192 273.607 60.2875 274.052 60.2326 274.487C60.0996 275.541 59.5201 275.581 59.0096 275.617C58.736 275.635 58.4822 275.653 58.3277 275.825C58.3215 275.832 58.3084 275.85 58.2894 275.879C58.2706 275.907 58.2459 275.945 58.2163 275.99L58.215 275.992C57.9085 276.463 57.0791 277.737 56.7045 277.61C56.1543 277.423 56.4349 276.235 56.4349 276.235C56.4349 276.235 54.8021 276.702 54.6806 276.235C54.2554 274.603 56.7045 271.261 56.7045 271.261C60.8222 265.204 66.9286 260.178 73.642 257.256C80.4797 254.28 88.4588 253.706 95.4489 256.304C103.329 259.232 109.57 266.229 111.581 274.392C112.083 276.427 114.45 277.326 116.519 277.664C116.713 277.696 116.91 277.727 117.109 277.758C119.018 278.056 121.048 278.373 122.264 279.831C122.623 280.26 122.524 280.896 122.401 281.442L122.365 281.599C121.911 283.546 121.119 285.725 119.228 286.316C117.509 286.852 115.472 285.466 115.34 283.67C115.329 283.512 115.325 283.345 115.322 283.175C115.307 282.477 115.292 281.742 114.706 281.454L104.725 303.897ZM88.4677 314.542C87.8248 311.239 85.8709 308.268 83.3074 306.087C83.4075 307.386 83.9568 308.645 84.8402 309.602C80.4961 310.983 76.3995 313.139 72.8011 315.937C71.8381 316.686 70.202 317.369 69.6379 316.287C67.4187 312.031 63.8859 308.472 59.6467 306.22L77.0749 296.205C77.8626 295.753 78.6958 295.287 79.6042 295.278C80.3084 295.271 80.9774 295.541 81.6142 295.855L81.9299 296.015C88.4518 299.374 94.2899 304.054 98.9874 309.689C100.151 311.084 100.692 312.87 101.153 314.638L103.226 322.737C103.363 323.273 103.464 323.937 103.043 324.297C102.807 324.5 102.474 324.535 102.163 324.559L101.8 324.587C96.6391 324.984 92.4755 325.305 87.3053 324.559C86.5338 323.08 87.1167 321.247 87.7187 319.354C88.2345 317.732 88.7643 316.067 88.4677 314.542ZM62.5404 309.562C64.4741 311.265 66.2175 313.184 67.7275 315.272C67.889 315.496 68.0552 315.745 68.038 316.02C68.0179 316.341 67.7578 316.588 67.5158 316.8L44.9903 336.515C44.0511 337.337 42.5527 337.193 41.5007 336.521C40.5801 335.934 39.9219 335.033 39.318 334.114L39.0619 333.72C44.9324 330.635 48.6982 325.108 52.4974 319.533C54.8805 316.035 57.2767 312.518 60.2139 309.573C60.4993 309.286 60.8214 308.99 61.2232 308.945C61.7202 308.889 62.1651 309.232 62.5404 309.562ZM128.138 254.57L128.712 254.747C129.832 255.093 130.019 256.594 129.876 257.758C129.286 262.576 126.291 267.345 121.673 268.842L121.509 268.898C118.5 269.96 116.348 273.107 116.477 276.3C114.457 276.679 112.292 275.063 112.08 273.019C112.037 272.611 112.158 272.082 112.563 272.02C114.398 271.738 116.086 270.612 117.05 269.026C118.015 267.44 118.239 265.423 117.645 263.664C117.524 263.305 117.37 262.945 117.215 262.585C116.776 261.561 116.336 260.533 116.644 259.5C117.347 259.564 117.481 260.529 117.407 261.231L117.399 261.317C117.342 262.009 117.464 262.897 118.135 262.99C118.578 261.973 118.67 260.835 118.762 259.705C118.877 258.279 118.991 256.867 119.809 255.73C120.744 254.431 122.422 253.834 124.023 253.815C125.423 253.798 126.793 254.162 128.138 254.57ZM26.9275 335.804L27.072 335.637C27.8782 335.46 28.648 336.493 28.2487 337.215C27.9926 337.678 28.7803 338.137 29.2202 337.842C29.66 337.547 29.7487 336.949 29.7971 336.421C30.2396 336.283 30.6224 336.79 30.7059 337.246C30.728 337.366 30.7417 337.491 30.7554 337.616C30.7936 337.963 30.8318 338.311 31.051 338.573C31.349 338.928 32.1384 338.744 32.0089 338.299C31.8158 337.635 32.6004 337.093 33.2852 336.995C33.4495 336.971 33.619 336.957 33.7891 336.943L33.7903 336.943C34.3288 336.899 34.8718 336.855 35.2638 336.505L35.3229 336.457C35.8204 336.105 36.4364 336.757 36.8119 337.337L36.9865 337.618C37.8122 338.902 39.2156 339.801 40.7286 340.006C41.0251 340.046 40.8743 340.508 40.6565 340.714L35.55 345.522C35.3025 345.756 34.9014 345.59 34.6114 345.412C31.5803 343.556 28.7821 341.32 26.3032 338.773C25.5222 337.971 26.1845 336.691 26.9275 335.804ZM71.584 344.754C71.4367 345.36 71.0181 346.039 70.3957 345.993C68.8958 345.882 67.3748 346.063 65.9427 346.523C66.0741 345.912 65.8069 345.234 65.294 344.878C64.9198 345.413 65.0729 346.242 65.6134 346.609L64.1856 348.02L63.5022 346.449C63.1651 346.539 63.1553 346.952 63.1786 347.331L63.1952 347.567C63.2636 348.561 62.4202 349.528 61.4258 349.595C60.4314 349.662 59.4659 348.817 59.4001 347.823C59.3285 346.74 60.1582 345.831 60.9296 345.067L66.407 339.643C66.5235 339.532 66.6569 339.429 66.8142 339.432C66.9879 339.435 67.1288 339.567 67.2511 339.69L69.3885 341.847C69.803 342.266 69.541 342.905 69.2857 343.529C69.023 344.171 68.7673 344.796 69.2635 345.144C69.7467 345.172 70.149 344.753 70.3347 344.306C70.4295 344.078 70.487 343.837 70.5446 343.597C70.5999 343.365 70.6552 343.134 70.7435 342.914C70.9236 342.465 71.3124 342.037 71.7963 342.048C72.2802 342.058 72.6535 342.749 72.2793 343.056C71.8804 343.384 71.7664 343.916 71.6557 344.433C71.6325 344.541 71.6095 344.649 71.584 344.754ZM34.1336 347.152C29.2104 344.519 24.8585 340.823 21.4616 336.392C21.9071 335.97 22.5769 336.419 23.0077 336.897L23.1144 337.022C26.3419 341.016 30.3953 344.339 34.9442 346.721C34.9073 347.08 34.452 347.323 34.1336 347.152ZM57.745 346.144C59.8777 343.355 62.2407 340.742 64.802 338.34C65.199 337.968 66.0237 337.717 66.1241 338.252C63.1423 341.098 60.2903 344.08 57.5801 347.186C57.2856 346.931 57.5082 346.453 57.745 346.144ZM41.3663 339.17C39.8781 338.641 38.5514 337.666 37.6008 336.405C37.2432 335.93 37.0176 335.106 37.5595 334.862C37.9878 334.669 38.3993 335.074 38.698 335.466L38.922 335.771C39.8846 337.041 41.2577 337.996 42.7848 338.453C42.7875 338.861 42.4502 339.243 42.0455 339.29C41.8151 339.317 41.5849 339.248 41.3663 339.17ZM114.396 256.632C115.095 256.648 115.688 257.377 115.561 258.066L115.577 258.075C115.674 258.574 115.61 259.103 115.398 259.565C114.633 258.814 114.249 257.693 114.396 256.632ZM127.724 256.649C127.812 256.641 127.905 256.633 127.999 256.632C128.117 256.63 128.253 256.651 128.381 256.671L128.382 256.671L128.382 256.671C128.728 256.725 129.018 256.77 128.744 256.341C128.369 255.754 127.271 255.687 127.091 256.361C127.141 256.7 127.403 256.677 127.724 256.649ZM128.608 259.554L128.624 259.493C128.891 258.482 128.736 257.684 127.999 257.684C127.715 257.705 127.281 259.153 127.322 259.592C127.364 260.031 127.859 260.437 128.242 260.219C128.469 260.09 128.542 259.809 128.608 259.554ZM123.748 259.247C123.234 258.533 123.18 257.518 123.616 256.754C123.68 256.64 123.759 256.528 123.873 256.462C124.161 256.297 124.547 256.521 124.674 256.828C124.801 257.135 124.745 257.483 124.688 257.81C124.688 257.81 124.261 259.96 123.748 259.247ZM201.912 259.403C212.816 257.871 223.878 259.037 234.682 261.264C241.305 262.629 241.194 260.694 240.745 252.883C240.633 250.94 240.5 248.633 240.445 245.922C240.37 242.255 241.211 240.279 242.043 238.324C242.48 237.297 242.914 236.277 243.211 235.021L243.252 234.847C243.863 232.219 244.277 229.136 242.425 227.201C240.876 225.582 238.464 225.507 236.15 225.556L234.819 225.587C232.144 225.639 228.837 224.81 228.249 222.2L228.216 222.064C227.584 219.633 224.826 217.956 222.377 218.546C219.882 219.146 218.173 221.986 218.81 224.472C219.079 225.52 217.57 226.023 216.488 226.023L208.747 226.024C207.346 226.025 205.369 226.781 205.865 228.091C206.899 230.822 206.825 233.955 205.664 236.634C202.283 235.062 197.727 237.775 197.497 241.496C197.268 245.217 201.457 248.469 205.005 247.324C203.769 251.294 202.736 255.327 201.912 259.403ZM232.558 259.267C223.174 256.966 213.372 256.384 203.782 257.56C205.446 253.683 206.177 249.408 205.895 245.197C203.396 246.949 199.293 244.894 199.199 241.844C199.104 238.794 203.071 236.489 205.674 238.082C206.364 238.504 207.123 237.629 207.398 236.868C208.338 234.278 208.347 231.361 207.424 228.765C207.064 227.754 208.59 227.206 209.663 227.227L218.769 227.407C219.381 227.419 220.03 227.422 220.552 227.103C221.075 226.785 221.371 226.019 220.988 225.543C219.412 223.588 221.223 220.088 223.729 220.246C226.235 220.403 227.594 224.102 225.786 225.844C225.449 226.169 226.104 226.588 226.573 226.599L238.48 226.873C240.848 226.927 242.521 229.45 242.618 231.817C242.699 233.82 241.988 235.738 241.286 237.632C241.224 237.798 241.163 237.963 241.103 238.128L240.908 238.663C238.799 244.581 238.121 251.003 238.946 257.23C239.107 258.445 237.988 259.526 236.791 259.789C235.735 260.021 234.648 259.791 233.59 259.527L232.558 259.267Z" fill="#00160A"/>
<path fill-rule="evenodd" clip-rule="evenodd" d="M105.643 150.285C105.73 149.724 106.478 149.4 107.018 149.592C107.559 149.785 108.041 150.56 107.645 150.999C107.018 151.693 105.475 151.374 105.643 150.285Z" fill="#FFB61D"/>
<path fill-rule="evenodd" clip-rule="evenodd" d="M340.944 295.616C340.591 295.912 339.882 296.02 339.816 295.563C341.195 294.16 342.144 292.339 342.504 290.405C342.954 290.284 343.084 291.001 342.971 291.453C342.591 292.977 342.147 294.606 340.944 295.616Z" fill="#00160A"/>
<path d="M36.479 128.441C36.465 128.893 35.7789 128.867 35.3639 128.686C35.5133 128.283 36.1188 128.148 36.4255 128.45L36.479 128.441Z" fill="black"/>
<path fill-rule="evenodd" clip-rule="evenodd" d="M232.278 252.707C231.8 253.133 230.995 252.482 231.067 251.846C231.138 251.21 231.701 250.755 232.242 250.413C234.179 249.185 236.422 248.446 238.71 248.281C238.771 249.153 237.64 249.513 236.782 249.68C234.961 250.035 233.226 250.824 231.762 251.963C232.027 252.126 232.219 252.402 232.278 252.707V252.707Z" fill="#00160A"/>
<path fill-rule="evenodd" clip-rule="evenodd" d="M238.774 253.82C237.701 254.338 236.609 254.816 235.501 255.254C235.627 255.722 236.298 255.706 236.754 255.542C237.209 255.378 237.809 255.205 238.104 255.589C237.354 256.732 235.498 256.911 234.544 255.93C234.13 255.504 233.379 255.785 232.844 255.526C232.078 255.156 232.221 254 232.672 253.278C233.613 251.772 235.409 250.843 237.182 250.945C237.858 250.984 238.664 251.317 238.709 251.992C236.591 251.859 234.432 252.732 233.002 254.3C233.814 254.929 234.98 254.46 235.896 253.996C236.812 253.531 238.022 253.121 238.774 253.82Z" fill="#00160A"/>
<path fill-rule="evenodd" clip-rule="evenodd" d="M126.033 259.827C126.641 260.435 126.894 260.714 126.894 261.608C126.894 262.503 126.408 263.077 125.589 263.34C125.212 263.461 124.689 263.368 124.591 262.984C127.32 262.426 126.317 261.237 126.033 259.827Z" fill="#00160A"/>
<path fill-rule="evenodd" clip-rule="evenodd" d="M122.392 256.022C122.684 255.057 123.95 254.535 124.836 255.015C125.187 255.205 125.479 255.551 125.497 255.949C124.462 255.974 123.61 255.304 122.392 256.022Z" fill="#00160A"/>
<path fill-rule="evenodd" clip-rule="evenodd" d="M124.87 264.645C123.617 265.547 119.097 261.44 124.87 264.645V264.645Z" fill="#00160A"/>
</svg>
